<?xml version="1.0" encoding="utf-8"?>
<!-- Generator: Adobe Illustrator 15.1.0, SVG Export Plug-In . SVG Version: 6.00 Build 0)  -->
<!DOCTYPE svg PUBLIC "-//W3C//DTD SVG 1.1//EN" "http://www.w3.org/Graphics/SVG/1.1/DTD/svg11.dtd">
<svg version="1.1" xmlns="http://www.w3.org/2000/svg" xmlns:xlink="http://www.w3.org/1999/xlink" x="0px" y="0px" width="24px"
	 height="24px" viewBox="0 0 24 24" enable-background="new 0 0 24 24" xml:space="preserve">
<g id="Layer_1" display="none">
	<g display="inline">
		<path fill="#202020" d="M12,2.999c4.962,0,9,4.038,9,9.001c0,4.963-4.037,9.001-9,9.001c-4.963,0-9-4.038-9-9.001
			C3,7.037,7.038,2.999,12,2.999 M12,0.999C5.926,0.999,1,5.925,1,12c0,6.075,4.926,11.001,11,11.001S23,18.075,23,12
			C23,5.925,18.075,0.999,12,0.999L12,0.999z"/>
	</g>
	
		<line display="inline" fill="none" stroke="#202020" stroke-width="2" stroke-linecap="round" x1="9" y1="11.958" x2="15" y2="11.958"/>
</g>
<g id="Layer_2">
	<g>
		<path fill="#202020" d="M12,1C5.93,1,1,5.93,1,12c0,6.08,4.93,11,11,11c6.08,0,11-4.92,11-11C23,5.93,18.08,1,12,1z M12,21
			c-4.96,0-9-4.04-9-9s4.04-9,9-9s9,4.04,9,9S16.96,21,12,21z"/>
		<path fill="#202020" d="M16,11.96c0,0.55-0.45,1-1,1h-2v2c0,0.55-0.45,1-1,1s-1-0.45-1-1v-2H9c-0.55,0-1-0.45-1-1s0.45-1,1-1h2v-2
			c0-0.55,0.45-1,1-1s1,0.45,1,1v2h2C15.55,10.96,16,11.41,16,11.96z"/>
	</g>
</g>
</svg>
