<?xml version="1.0" encoding="utf-8"?>
<!-- Generator: Adobe Illustrator 15.1.0, SVG Export Plug-In . SVG Version: 6.00 Build 0)  -->
<!DOCTYPE svg PUBLIC "-//W3C//DTD SVG 1.1//EN" "http://www.w3.org/Graphics/SVG/1.1/DTD/svg11.dtd">
<svg version="1.1" xmlns="http://www.w3.org/2000/svg" xmlns:xlink="http://www.w3.org/1999/xlink" x="0px" y="0px" width="24px"
	 height="24px" viewBox="0 0 24 24" enable-background="new 0 0 24 24" xml:space="preserve">
<g id="Layer_1">
	<g>
		<path fill="#202020" d="M12,1C5.93,1,1,5.93,1,12c0,6.08,4.93,11,11,11c6.08,0,11-4.92,11-11C23,5.93,18.08,1,12,1z M12,21
			c-4.96,0-9-4.04-9-9s4.04-9,9-9s9,4.04,9,9S16.96,21,12,21z"/>
		<path fill="#202020" d="M16,11.96c0,0.55-0.45,1-1,1H9c-0.55,0-1-0.45-1-1s0.45-1,1-1h6C15.55,10.96,16,11.41,16,11.96z"/>
	</g>
</g>
<g id="Layer_2" display="none">
	<g display="inline">
		<path fill="#202020" d="M12,1C5.93,1,1,5.93,1,12c0,6.08,4.93,11,11,11c6.08,0,11-4.92,11-11C23,5.93,18.08,1,12,1z M12,21
			c-4.96,0-9-4.04-9-9s4.04-9,9-9s9,4.04,9,9S16.96,21,12,21z"/>
		<path fill="#202020" d="M16,11.96c0,0.55-0.45,1-1,1h-2v2c0,0.55-0.45,1-1,1s-1-0.45-1-1v-2H9c-0.55,0-1-0.45-1-1s0.45-1,1-1h2v-2
			c0-0.55,0.45-1,1-1s1,0.45,1,1v2h2C15.55,10.96,16,11.41,16,11.96z"/>
	</g>
</g>
</svg>
