<?xml version="1.0" encoding="utf-8"?>
<!-- Generator: Adobe Illustrator 15.1.0, SVG Export Plug-In . SVG Version: 6.00 Build 0)  -->
<!DOCTYPE svg PUBLIC "-//W3C//DTD SVG 1.1//EN" "http://www.w3.org/Graphics/SVG/1.1/DTD/svg11.dtd">
<svg version="1.1" id="Layer_2" xmlns="http://www.w3.org/2000/svg" xmlns:xlink="http://www.w3.org/1999/xlink" x="0px" y="0px"
	 width="68px" height="42px" viewBox="0 0 68 42" enable-background="new 0 0 68 42" xml:space="preserve">
<g>
	<path fill="#FFFFFF" d="M6.727,14.751h10.979v-9.1c0-1.626-0.075-2.697-0.227-3.213c-0.116-0.391-0.36-0.727-0.732-1.008
		c-0.5-0.375-1.028-0.563-1.585-0.563h-0.837V0h10.108v0.868h-0.836c-0.558,0-1.086,0.18-1.586,0.54
		c-0.372,0.25-0.625,0.629-0.758,1.138c-0.134,0.508-0.201,1.544-0.201,3.107v20.521c0,1.61,0.075,2.673,0.227,3.189
		c0.116,0.392,0.354,0.727,0.714,1.009c0.511,0.375,1.045,0.563,1.604,0.563h0.836v0.868H14.325v-0.868h0.837
		c0.964,0,1.667-0.383,2.108-1.148c0.291-0.501,0.436-1.705,0.436-3.612v-9.686H6.727v9.686c0,1.61,0.075,2.673,0.226,3.189
		c0.116,0.392,0.36,0.727,0.732,1.009c0.499,0.375,1.028,0.563,1.586,0.563h0.854v0.868H0v-0.868h0.836
		c0.976,0,1.684-0.383,2.126-1.148c0.279-0.501,0.417-1.705,0.417-3.612V5.652c0-1.626-0.075-2.697-0.226-3.213
		C3.038,2.048,2.799,1.712,2.44,1.431C1.929,1.055,1.394,0.868,0.836,0.868H0V0h10.125v0.868H9.271c-0.558,0-1.087,0.18-1.586,0.54
		c-0.36,0.25-0.61,0.629-0.75,1.138c-0.14,0.508-0.209,1.544-0.209,3.107V14.751z"/>
	<path fill="#FFFFFF" d="M45.815,0l0.261,7.458h-0.661c-0.128-1.314-0.303-2.252-0.523-2.815c-0.359-0.906-0.839-1.575-1.438-2.005
		c-0.599-0.43-1.386-0.645-2.361-0.645h-3.328V26.29c0,1.955,0.156,3.174,0.47,3.659c0.441,0.656,1.121,0.984,2.04,0.984h0.818
		v0.868H31.072v-0.868h0.837c0.999,0,1.708-0.406,2.126-1.22c0.255-0.5,0.383-1.641,0.383-3.423V1.993h-2.84
		c-1.104,0-1.888,0.11-2.353,0.329c-0.604,0.297-1.122,0.868-1.551,1.712c-0.43,0.845-0.686,1.986-0.767,3.424h-0.662L26.523,0
		H45.815z"/>
	<path fill="#FFFFFF" d="M67.425,23.006L68,23.171l-2.021,8.63H47.681v-0.868h0.888c1,0,1.715-0.438,2.145-1.313
		c0.243-0.5,0.366-1.657,0.366-3.471V5.628c0-1.985-0.163-3.228-0.489-3.729c-0.452-0.688-1.127-1.032-2.021-1.032h-0.888V0h10.7
		v0.868c-1.255-0.016-2.136,0.141-2.641,0.469c-0.506,0.328-0.852,0.743-1.038,1.243c-0.185,0.5-0.277,1.697-0.277,3.588v19.981
		c0,1.297,0.093,2.189,0.277,2.673c0.141,0.328,0.355,0.571,0.646,0.727c0.289,0.157,1.195,0.235,2.718,0.235h1.726
		c1.813,0,3.084-0.18,3.816-0.54c0.731-0.36,1.4-0.997,2.004-1.911C66.217,26.418,66.821,24.976,67.425,23.006z"/>
</g>
<g>
	<path fill="#FFFFFF" d="M0.795,41.409h1.792v0.54H0.127v-5.088h0.668V41.409z"/>
	<path fill="#FFFFFF" d="M5.054,41.668c-0.392-0.222-0.701-0.53-0.929-0.928c-0.228-0.396-0.342-0.843-0.342-1.339
		s0.114-0.942,0.342-1.339c0.228-0.396,0.537-0.705,0.929-0.927c0.392-0.221,0.825-0.332,1.299-0.332
		c0.479,0,0.915,0.111,1.307,0.332c0.392,0.222,0.7,0.529,0.925,0.924c0.225,0.394,0.337,0.842,0.337,1.342
		c0,0.501-0.112,0.95-0.337,1.343c-0.225,0.395-0.534,0.702-0.925,0.924C7.269,41.89,6.833,42,6.354,42
		C5.879,42,5.446,41.89,5.054,41.668z M7.319,41.175c0.286-0.165,0.511-0.401,0.675-0.708s0.247-0.662,0.247-1.066
		c0-0.409-0.083-0.765-0.247-1.069s-0.388-0.539-0.672-0.705c-0.284-0.166-0.607-0.248-0.969-0.248s-0.685,0.083-0.969,0.248
		c-0.284,0.166-0.508,0.4-0.672,0.705c-0.164,0.304-0.246,0.66-0.246,1.069c0,0.405,0.082,0.76,0.246,1.066
		c0.164,0.307,0.389,0.542,0.675,0.708c0.287,0.166,0.608,0.249,0.965,0.249S7.033,41.34,7.319,41.175z"/>
	<path fill="#FFFFFF" d="M14.416,38.336c-0.143-0.297-0.348-0.526-0.617-0.69c-0.27-0.164-0.583-0.245-0.94-0.245
		c-0.357,0-0.679,0.081-0.965,0.245c-0.287,0.164-0.512,0.397-0.676,0.701c-0.164,0.304-0.246,0.655-0.246,1.054
		c0,0.399,0.082,0.75,0.246,1.052s0.39,0.534,0.676,0.698c0.286,0.162,0.607,0.244,0.965,0.244c0.499,0,0.911-0.148,1.234-0.445
		c0.323-0.296,0.511-0.698,0.565-1.204h-2.041v-0.541h2.753v0.51c-0.039,0.419-0.171,0.803-0.396,1.15
		c-0.225,0.348-0.521,0.623-0.888,0.825c-0.367,0.202-0.776,0.303-1.227,0.303c-0.475,0-0.908-0.111-1.299-0.332
		c-0.392-0.221-0.702-0.528-0.929-0.923c-0.228-0.395-0.342-0.84-0.342-1.336s0.114-0.942,0.342-1.339
		c0.227-0.396,0.537-0.705,0.929-0.927c0.392-0.221,0.825-0.332,1.299-0.332c0.544,0,1.024,0.134,1.443,0.401
		c0.418,0.268,0.723,0.645,0.914,1.132H14.416z"/>
	<path fill="#FFFFFF" d="M18.006,41.668c-0.391-0.222-0.701-0.53-0.929-0.928c-0.227-0.396-0.341-0.843-0.341-1.339
		s0.114-0.942,0.341-1.339c0.229-0.396,0.538-0.705,0.929-0.927c0.392-0.221,0.825-0.332,1.3-0.332c0.479,0,0.916,0.111,1.307,0.332
		c0.392,0.222,0.7,0.529,0.926,0.924c0.225,0.394,0.337,0.842,0.337,1.342c0,0.501-0.112,0.95-0.337,1.343
		c-0.226,0.395-0.534,0.702-0.926,0.924C20.221,41.89,19.785,42,19.306,42C18.831,42,18.397,41.89,18.006,41.668z M20.271,41.175
		c0.287-0.165,0.511-0.401,0.676-0.708c0.164-0.307,0.246-0.662,0.246-1.066c0-0.409-0.082-0.765-0.246-1.069
		c-0.165-0.304-0.388-0.539-0.672-0.705c-0.284-0.166-0.607-0.248-0.969-0.248c-0.362,0-0.686,0.083-0.969,0.248
		c-0.284,0.166-0.508,0.4-0.672,0.705s-0.246,0.66-0.246,1.069c0,0.405,0.082,0.76,0.246,1.066s0.39,0.542,0.675,0.708
		c0.287,0.166,0.609,0.249,0.966,0.249C19.663,41.424,19.985,41.34,20.271,41.175z"/>
	<path fill="#FFFFFF" d="M26.273,38.062c0.225-0.396,0.532-0.707,0.922-0.93c0.389-0.224,0.821-0.336,1.296-0.336
		c0.558,0,1.045,0.134,1.461,0.402c0.416,0.267,0.719,0.647,0.91,1.139h-0.8c-0.142-0.307-0.346-0.542-0.613-0.708
		c-0.267-0.166-0.586-0.248-0.958-0.248c-0.358,0-0.678,0.083-0.962,0.248c-0.284,0.166-0.507,0.4-0.668,0.705
		s-0.242,0.66-0.242,1.069c0,0.405,0.081,0.759,0.242,1.063c0.162,0.305,0.384,0.539,0.668,0.705
		c0.284,0.165,0.604,0.248,0.962,0.248c0.372,0,0.691-0.082,0.958-0.245c0.267-0.163,0.471-0.397,0.613-0.704h0.8
		c-0.191,0.486-0.494,0.862-0.91,1.127c-0.416,0.266-0.903,0.398-1.461,0.398c-0.475,0-0.907-0.111-1.296-0.332
		c-0.39-0.221-0.697-0.528-0.922-0.923c-0.225-0.395-0.337-0.84-0.337-1.336S26.048,38.458,26.273,38.062z"/>
	<path fill="#FFFFFF" d="M33.608,41.668c-0.391-0.222-0.701-0.53-0.929-0.928c-0.228-0.396-0.341-0.843-0.341-1.339
		s0.113-0.942,0.341-1.339c0.228-0.396,0.538-0.705,0.929-0.927c0.392-0.221,0.825-0.332,1.3-0.332c0.479,0,0.915,0.111,1.307,0.332
		c0.392,0.222,0.7,0.529,0.925,0.924c0.227,0.394,0.339,0.842,0.339,1.342c0,0.501-0.112,0.95-0.339,1.343
		c-0.225,0.395-0.533,0.702-0.925,0.924S35.387,42,34.908,42C34.434,42,34,41.89,33.608,41.668z M35.874,41.175
		c0.286-0.165,0.511-0.401,0.675-0.708s0.246-0.662,0.246-1.066c0-0.409-0.082-0.765-0.246-1.069s-0.387-0.539-0.672-0.705
		c-0.283-0.166-0.606-0.248-0.969-0.248s-0.686,0.083-0.969,0.248c-0.285,0.166-0.509,0.4-0.673,0.705
		c-0.163,0.304-0.246,0.66-0.246,1.069c0,0.405,0.083,0.76,0.246,1.066c0.164,0.307,0.39,0.542,0.676,0.708
		c0.286,0.166,0.607,0.249,0.966,0.249C35.265,41.424,35.587,41.34,35.874,41.175z"/>
	<path fill="#FFFFFF" d="M44.284,36.898v5.051h-0.669v-3.766l-1.688,3.766h-0.471l-1.696-3.773v3.773h-0.668v-5.051h0.721
		l1.879,4.175l1.881-4.175H44.284z"/>
	<path fill="#FFFFFF" d="M49.133,39.405c-0.29,0.28-0.734,0.42-1.332,0.42h-0.983v2.124h-0.668v-5.088h1.651
		c0.577,0,1.018,0.139,1.319,0.417c0.301,0.278,0.451,0.635,0.451,1.073C49.571,38.773,49.425,39.125,49.133,39.405z M48.624,39.036
		c0.176-0.161,0.265-0.389,0.265-0.686c0-0.629-0.363-0.942-1.088-0.942h-0.983v1.868h0.983
		C48.173,39.277,48.447,39.197,48.624,39.036z"/>
	<path fill="#FFFFFF" d="M54.16,40.818h-2.232l-0.411,1.131h-0.705l1.85-5.059h0.772l1.842,5.059H54.57L54.16,40.818z
		 M53.969,40.277l-0.925-2.569l-0.926,2.569H53.969z"/>
	<path fill="#FFFFFF" d="M60.842,41.949h-0.668l-2.688-4.051v4.051h-0.668v-5.095h0.668l2.688,4.044v-4.044h0.668V41.949z"/>
	<path fill="#FFFFFF" d="M66.297,36.861l-1.667,3.167v1.92h-0.668v-1.92l-1.674-3.167h0.742l1.262,2.577l1.264-2.577H66.297z"/>
</g>
</svg>
